<svg xmlns="http://www.w3.org/2000/svg" viewBox="0 0 46.004 46.004" width="512" height="512"><g fill="currentColor"><path d="M29.893.402a3.029 3.029 0 00-3.09.044.929.929 0 00-.13.093L13.122 12.002H2.489a1 1 0 00-1 1v19a1.002 1.002 0 001 1l10.61-.005 13.543 12.44c.05.046.104.086.161.12a3.055 3.055 0 001.582.446 3.07 3.07 0 001.508-.402 3.124 3.124 0 001.596-2.756V3.158A3.125 3.125 0 0029.893.402zm-.404 42.443c0 .431-.217.81-.579 1.015a1.049 1.049 0 01-1 .026L14.489 31.557v-4.556a1 1 0 10-2 0v3.996l-9 .004v-17h9v4a1 1 0 102 0v-4.536l13.405-11.34c.461-.242.86-.07 1.016.018.362.205.579.584.579 1.015v39.687zM34.766 9.54a1 1 0 00-.554 1.922c4.889 1.413 8.304 5.953 8.304 11.04s-3.415 9.627-8.304 11.04a1 1 0 00.554 1.922c5.74-1.66 9.749-6.99 9.749-12.962S40.506 11.2 34.766 9.54z"/></g></svg>