<svg xmlns="http://www.w3.org/2000/svg" viewBox="0 0 54 54" width="512" height="512"><g fill="currentColor"><path d="M46.414 26l7.293-7.293a.999.999 0 10-1.414-1.414L45 24.586l-7.293-7.293a.999.999 0 10-1.414 1.414L43.586 26l-7.293 7.293a.999.999 0 101.414 1.414L45 27.414l7.293 7.293a.997.997 0 001.414 0 .999.999 0 000-1.414L46.414 26zM28.404 4.4a3.029 3.029 0 00-3.09.044.929.929 0 00-.13.093L11.634 16H1a1 1 0 00-1 1v19a1.002 1.002 0 001 1l10.61-.005 13.543 12.44c.05.046.104.086.161.12a3.055 3.055 0 001.582.446 3.07 3.07 0 001.508-.402A3.122 3.122 0 0030 46.844V7.156A3.125 3.125 0 0028.404 4.4zM28 46.844c0 .431-.217.81-.579 1.015a1.049 1.049 0 01-1 .026L13 35.556V31a1 1 0 10-2 0v3.996L2 35V18h9v4a1 1 0 102 0v-4.536l13.405-11.34c.46-.242.86-.07 1.016.018.362.205.579.583.579 1.014v39.688z"/></g></svg>